<?xml version="1.0" standalone="no"?>
<!DOCTYPE svg PUBLIC "-//W3C//DTD SVG 20010904//EN"
 "http://www.w3.org/TR/2001/REC-SVG-20010904/DTD/svg10.dtd">
<svg version="1.0" xmlns="http://www.w3.org/2000/svg"
 width="900.000000pt" height="900.000000pt" viewBox="0 0 900.000000 900.000000"
 preserveAspectRatio="xMidYMid meet">
<metadata>
Created by potrace 1.11, written by Peter Selinger 2001-2013
</metadata>
<g transform="translate(0.000000,900.000000) scale(0.100000,-0.100000)"
fill="#000000" stroke="none">
<path d="M5255 6348 c-247 -16 -507 -139 -604 -285 -64 -96 -117 -229 -147
-366 -24 -111 -30 -387 -11 -522 9 -60 21 -159 27 -220 6 -60 15 -153 20 -205
15 -136 13 -342 -4 -435 -74 -413 -281 -766 -600 -1021 -129 -103 -129 -87 3
112 159 240 251 423 339 674 l40 115 -4 268 c-2 148 -6 272 -8 275 -10 16 -21
326 -21 567 0 272 1 282 57 538 l21 98 158 177 c127 142 155 180 145 190 -10
10 -18 10 -42 -3 -16 -8 -33 -15 -37 -15 -4 0 -64 -23 -133 -50 -113 -45 -136
-51 -230 -57 -67 -4 -108 -2 -116 5 -20 16 -528 152 -568 152 -70 -1 -216 -40
-300 -81 -68 -34 -102 -59 -175 -133 -97 -97 -135 -157 -160 -251 -19 -76 -20
-154 -1 -161 30 -11 87 38 149 130 58 84 61 86 158 86 101 0 218 -21 306 -56
55 -21 80 -24 198 -25 l135 0 145 49 144 48 -37 -40 c-148 -160 -252 -355
-303 -562 -18 -70 -22 -119 -22 -234 0 -80 2 -161 6 -182 l6 -36 -82 -7 c-128
-10 -246 -34 -307 -63 -32 -15 -80 -51 -115 -86 l-60 -60 65 -8 c198 -23 279
-52 406 -145 96 -71 134 -134 134 -224 l0 -50 -57 7 c-154 19 -276 -2 -348
-61 -25 -21 -28 -26 -15 -35 8 -5 23 -10 33 -10 37 0 179 -63 235 -104 84 -62
127 -127 147 -223 11 -51 14 -98 10 -138 -6 -59 -43 -180 -72 -240 -9 -16
-125 -141 -260 -276 l-245 -246 37 -23 36 -22 77 35 c102 46 347 128 497 166
212 53 325 66 580 66 159 -1 208 -4 300 -24 256 -53 462 -145 617 -274 l47
-39 30 25 c17 14 150 139 297 278 l266 254 -28 22 c-33 26 -73 48 -77 42 -33
-49 -85 -102 -112 -115 -41 -19 -47 -16 -160 71 -86 66 -110 77 -255 123 -175
56 -247 67 -455 67 -207 0 -227 -3 -567 -85 -87 -20 -158 -34 -157 -31 0 3 55
56 121 116 360 329 439 419 519 589 125 267 152 455 130 911 -18 371 -26 599
-26 730 0 109 2 125 26 176 15 31 43 72 63 92 60 61 191 117 271 117 37 0 95
38 114 74 17 31 10 42 -49 73 -31 16 -48 18 -145 11z"/>
</g>
</svg>
